<svg id="visual" viewBox="0 0 1920 1080" width="1920" height="1080" xmlns="http://www.w3.org/2000/svg" xmlns:xlink="http://www.w3.org/1999/xlink" version="1.1"><rect x="0" y="0" width="1920" height="1080" fill="#fff"></rect><defs><linearGradient id="grad1_0" x1="43.8%" y1="100%" x2="100%" y2="0%"><stop offset="14.444444444444446%" stop-color="#ffffff" stop-opacity="1"></stop><stop offset="85.55555555555554%" stop-color="#ffffff" stop-opacity="1"></stop></linearGradient></defs><defs><linearGradient id="grad2_0" x1="0%" y1="100%" x2="56.3%" y2="0%"><stop offset="14.444444444444446%" stop-color="#ffffff" stop-opacity="1"></stop><stop offset="85.55555555555554%" stop-color="#ffffff" stop-opacity="1"></stop></linearGradient></defs><g transform="translate(1920, 1080)"><path d="M-702 0C-648.3 -72.9 -594.5 -145.7 -569.1 -235.7C-543.7 -325.7 -546.6 -432.8 -496.4 -496.4C-446.2 -560 -343 -580 -251.4 -607C-159.8 -634 -79.9 -668 0 -702L0 0Z" fill="#6c5ce7"></path></g><g transform="translate(0, 0)"><path d="M702 0C665.1 80.9 628.2 161.7 599.6 248.4C571 335 550.6 427.4 496.4 496.4C442.1 565.3 354 610.8 265.6 641.2C177.2 671.5 88.6 686.8 0 702L0 0Z" fill="#6c5ce7"></path></g></svg>